 http://img442.imageshack.us/img442/8441/coverzr.png
 
http://torrent-stats.info/7e11/1075aef6a.png

IMDB: 
http://www.imdb.com/title/tt1907668/
Genre:Drama 
Source:Blu-ray Disc
Language:English
File size:7.47 GiB
Overall bit rate:7712 Kbps
Duration:2h 18mn 35s
Encoded / Released By:alrmothe


StorylineAn airline pilot saves a flight from crashing, but an investigation into the malfunctions reveals something troubling.



cast
Denzel Washington...Whip Whitaker
Nadine Velazquez...Katerina Marquez
Carter Cabassa...Son on Plane
Adam C. Edwards...Father on Plane (as Adam Ciesielski)
Tamara Tunie...Margaret Thomason
Brian Geraghty...Ken Evans
Kelly Reilly...Nicole
Conor O'Neill...Kip
Charlie E. Schmidt...Tiki Pot
Will Sherrod...Schecter
Boni Yanagisawa	...Camelia Satou
Adam Tomei...Fran
Dane Davenport...Derek Hogue
John Crow...Field Reporter
Bruce Greenwood	...Charlie Anderson



Video Information
Format: Matroska
Format/Info : Advanced Video Codec
Format profile: High@L4.1
Format settings, CABAC: Yes
Format settings, ReFrames: 5 frames
Muxing mode: Header stripping
Codec ID: V_MPEG4/ISO/AVC
Bit rate: 6200 Kbps
Width: 1 920 pixels
Height: 800 pixels
Display aspect ratio:2.40:1
Frame rate mode: Constant
Frame rate: 23.976 fps
Color space: YUV
Chroma subsampling: 4:2:0
Bit depth: 8 bits
Scan type: Progressive
Bits/(Pixel*Frame): 0.168
Stream size:5.86 GiB (78%)
Title: Flight 2012 1080p BluRay DTS x264 - alrmothe
Resolution:1920x800


Audio Information:
Format : DTS
Format/Info : Digital Theater Systems
Mode : 16
Format settings, Endianness : Big
Muxing mode : Header stripping
Codec ID : A_DTS
Duration : 2h 18mn
Bit rate mode : Constant
Bit rate : 1 509 Kbps
Channel(s) : 6 channels
Channel positions : Front: L C R, Side: L R, LFE
Sampling rate  : 48.0 KHz
Bit depth  : 24 bits
Compression mode : Lossy
Stream size  : 1.46 GiB (20%)
Title : DTS 1510 Kbps
Language:English


SUB:English,English SDH,Arabic,Spanish,indonesian,French,Romanian,Dutch.srt




Screenshots 
http://img10.imageshack.us/img10/6663/71719761.png 
http://img842.imageshack.us/img842/7687/25867837.png 
http://img16.imageshack.us/img16/2401/98109043.png 
http://img171.imageshack.us/img171/6442/23160217.png 
http://img23.imageshack.us/img23/5973/77212179.png 
http://img805.imageshack.us/img805/4475/43986256.png 
http://img835.imageshack.us/img835/9819/55214961.png 
http://img35.imageshack.us/img35/3992/38826974.png
 
http://img267.imageshack.us/img267/1293/flight20121080pbluraydt.jpg



Code:

 
http://121.14.98.151:9090/announce 
http://tracker.ex.ua/announce 
http://tracker.torrentbay.to:6969/announce 
http://exodus.desync.com:6969/announce 
http://94.228.192.98/announce
udp://tracker.istole.it:80/announce








Trailer
